<svg version="1.2" xmlns="http://www.w3.org/2000/svg" viewBox="0 0 25 20" width="25" height="20"><defs><clipPath clipPathUnits="userSpaceOnUse" id="cp1"><path d="m-25-737h375v812h-375z"/></clipPath></defs><style>tspan{white-space:pre}.a{fill:#fa4a84}</style><g clip-path="url(#cp1)"><path fill-rule="evenodd" class="a" d="m3.5 20c-1.9 0-3.5-1.6-3.5-3.5v-13c0-1.9 1.6-3.5 3.5-3.5h17.2c1.9 0 3.5 1.6 3.5 3.5v3h-6.5c-1.9 0-3.5 1.6-3.5 3.5 0 1.9 1.6 3.5 3.5 3.5h6.5v3c0 1.9-1.6 3.5-3.5 3.5zm20.7-7.9h-6.5c-1.2 0-2.1-0.9-2.1-2.1 0-1.2 0.9-2.1 2.1-2.1h6.5v4.2q0 0 0 0zm-7.2-2.1c0 0.4 0.3 0.7 0.7 0.7h0.9c0.4 0 0.7-0.3 0.7-0.7 0-0.4-0.3-0.7-0.7-0.7h-0.9c-0.4 0-0.7 0.3-0.7 0.7z"/></g></svg>