<svg version="1.2" xmlns="http://www.w3.org/2000/svg" viewBox="0 0 40 40" width="40" height="40"><defs><clipPath clipPathUnits="userSpaceOnUse" id="cp1"><path d="m-24-546h375v812h-375z"/></clipPath></defs><style>.a{fill:#fa4a84}.b{fill:#fff}</style><g clip-path="url(#cp1)"><path class="a" d="m0 20c0-11 9-20 20-20 11 0 20 9 20 20 0 11-9 20-20 20-11 0-20-9-20-20z"/><path class="b" d="m28.5 14.8l-3.6 3.5 2.8 8.5-1.8 1.8-4.4-7.1-3.7 3.6 0.4 2.3-1.6 1.6-1.2-3.4-3.4-1.2 1.6-1.6 2.3 0.4 3.6-3.7-7.1-4.4 1.8-1.8 8.5 2.8 3.5-3.6c0.6-0.7 1.7-0.7 2.3 0 0.7 0.6 0.7 1.7 0 2.3z"/></g></svg>