<svg version="1.2" xmlns="http://www.w3.org/2000/svg" viewBox="0 0 14 18" width="14" height="18"><defs><clipPath clipPathUnits="userSpaceOnUse" id="cp1"><path d="m-29-624h375v812h-375z"/></clipPath></defs><style>.a{fill:#3cba54}</style><g clip-path="url(#cp1)"><path fill-rule="evenodd" class="a" d="m0.8 17c-0.5 0-0.8-0.3-0.8-0.8v-15.4c0-0.5 0.3-0.8 0.8-0.8h11.6c0.4 0 0.7 0.3 0.7 0.8v15.4c0 0.5-0.3 0.8-0.7 0.8zm0.7-1.5h10.1v-10.1h-10.1zm0-11.6h10.1v-2.3h-10.1zm7.3 10.9c-0.2 0-0.4-0.2-0.4-0.4v-4.7c0-0.2 0.2-0.4 0.4-0.4h1.6c0.2 0 0.4 0.2 0.4 0.4v4.7c0 0.2-0.2 0.4-0.4 0.4zm-3 0c-0.3 0-0.4-0.2-0.4-0.4v-1.6c0-0.2 0.1-0.4 0.4-0.4h1.6c0.2 0 0.4 0.2 0.4 0.4v1.6c0 0.2-0.2 0.4-0.4 0.4zm-3.1 0c-0.2 0-0.4-0.2-0.4-0.4v-1.6c0-0.2 0.2-0.4 0.4-0.4h1.6c0.2 0 0.4 0.2 0.4 0.4v1.6c0 0.2-0.2 0.4-0.4 0.4zm3.1-3.1c-0.2 0-0.4-0.2-0.4-0.4v-1.6c0-0.2 0.2-0.4 0.4-0.4h1.6c0.2 0 0.4 0.2 0.4 0.4v1.6c0 0.2-0.2 0.4-0.4 0.4zm-3.1 0c-0.2 0-0.4-0.2-0.4-0.4v-1.6c0-0.2 0.2-0.4 0.4-0.4h1.6c0.2 0 0.4 0.2 0.4 0.4v1.6c0 0.2-0.2 0.4-0.4 0.4zm6.1-3.2c-0.2 0-0.3-0.2-0.3-0.4v-1.6c0-0.2 0.1-0.4 0.3-0.4h1.6c0.3 0 0.4 0.2 0.4 0.4v1.6c0 0.2-0.1 0.4-0.4 0.4zm-3 0c-0.2 0-0.4-0.2-0.4-0.4v-1.6c0-0.2 0.2-0.4 0.4-0.4h1.6c0.2 0 0.4 0.2 0.4 0.4v1.6c0 0.2-0.2 0.4-0.4 0.4zm-3.1 0c-0.2 0-0.4-0.2-0.4-0.4v-1.6c0-0.2 0.2-0.4 0.4-0.4h1.6c0.2 0 0.4 0.2 0.4 0.4v1.6c0 0.2-0.2 0.4-0.4 0.4z"/></g></svg>