<svg version="1.2" xmlns="http://www.w3.org/2000/svg" viewBox="0 0 24 18" width="24" height="18"><defs><clipPath clipPathUnits="userSpaceOnUse" id="cp1"><path d="m-300-253h375v812h-375z"/></clipPath></defs><style>.a{fill:#fa4a84}</style><g clip-path="url(#cp1)"><path fill-rule="evenodd" class="a" d="m2.1 18q-0.9 0-1.5-0.6-0.6-0.6-0.6-1.5v-13.8q0-0.9 0.6-1.5 0.6-0.6 1.5-0.6h18.8q0.9 0 1.5 0.6 0.6 0.6 0.6 1.5v13.8q0 0.9-0.6 1.5-0.6 0.6-1.5 0.6zm-0.4-2.2q0 0.2 0.1 0.4 0.1 0.1 0.3 0.1h18.9q0.1 0 0.2-0.1 0.2-0.2 0.2-0.4v-8.1h-19.7zm0.1-14q-0.1 0.1-0.1 0.2v3h19.7v-3q0-0.1-0.2-0.2-0.1-0.2-0.2-0.2h-18.9q-0.2 0-0.3 0.2zm1.6 12.8v-1.6h5.3v1.6z"/></g></svg>