<svg version="1.2" xmlns="http://www.w3.org/2000/svg" viewBox="0 0 18 18" width="18" height="18"><defs><clipPath clipPathUnits="userSpaceOnUse" id="cp1"><path d="m-319-588h375v812h-375z"/></clipPath><clipPath clipPathUnits="userSpaceOnUse" id="cp2"><path d="m-295-19c0-4.42 3.58-8 8-8h311c4.42 0 8 3.58 8 8v54c0 4.42-3.58 8-8 8h-311c-4.42 0-8-3.58-8-8z"/></clipPath></defs><style>.a{opacity:.8;fill:#fff}</style><g clip-path="url(#cp1)"><g clip-path="url(#cp2)"><path fill-rule="evenodd" class="a" d="m8.5 17c-4.7 0-8.5-3.8-8.5-8.5 0-4.7 3.8-8.5 8.5-8.5 4.7 0 8.5 3.8 8.5 8.5 0 4.7-3.8 8.5-8.5 8.5zm-0.1-7.4l2 2q0.3 0.3 0.6 0.3 0.4 0 0.6-0.3 0.3-0.2 0.3-0.6 0-0.3-0.3-0.6l-2-2 2-2q0.3-0.2 0.3-0.6 0-0.3-0.3-0.6-0.2-0.2-0.6-0.2-0.3 0-0.6 0.2l-2 2-2-2q-0.2-0.2-0.6-0.2-0.3 0-0.6 0.2c-0.3 0.3-0.3 0.9 0 1.2l2 2-2 2c-0.3 0.3-0.3 0.9 0 1.2q0.3 0.3 0.6 0.3 0.4 0 0.6-0.3l2-2z"/></g></g></svg>