<svg version="1.2" xmlns="http://www.w3.org/2000/svg" viewBox="0 0 21 15" width="21" height="15"><defs><clipPath clipPathUnits="userSpaceOnUse" id="cp1"><path d="m-15-59h375v812h-375z"/></clipPath></defs><style>.a{fill:#fff}</style><g clip-path="url(#cp1)"><path class="a" d="m20.2 7.5c0 0.6-0.5 1-1.1 1h-15.5l4.6 4.7c0.4 0.4 0.4 1.1 0 1.5-0.2 0.2-0.4 0.3-0.7 0.3-0.3 0-0.5-0.1-0.7-0.3l-6.5-6.5c-0.4-0.4-0.4-1 0-1.4l6.5-6.5c0.4-0.4 1-0.4 1.4 0 0.4 0.4 0.4 1.1 0 1.5l-4.6 4.7h15.5c0.6 0 1.1 0.4 1.1 1z"/></g></svg>