<svg version="1.2" xmlns="http://www.w3.org/2000/svg" viewBox="0 0 20 33" width="20" height="33"><defs><clipPath clipPathUnits="userSpaceOnUse" id="cp1"><path d="m-46-105h375v812h-375z"/></clipPath></defs><style>.a{fill:#bb53f2}</style><g clip-path="url(#cp1)"><path fill-rule="evenodd" class="a" d="m17.7 32h-14.5c-1.2 0-2.2-1-2.2-2.2v-27.6c0-1.2 1-2.2 2.2-2.2h14.5c1.2 0 2.2 1 2.2 2.2v27.6c0 1.2-1 2.2-2.2 2.2zm-3.1-4.1c-0.5 0-0.8 0.4-0.8 0.8 0 0.4 0.3 0.8 0.8 0.8h2.3c0.5 0 0.8-0.4 0.8-0.8 0-0.4-0.3-0.8-0.8-0.8zm-5.3 0c-0.4 0-0.8 0.4-0.8 0.8 0 0.4 0.4 0.8 0.8 0.8h2.4c0.4 0 0.8-0.4 0.8-0.8 0-0.4-0.4-0.8-0.8-0.8zm-5.3 0c-0.5 0-0.8 0.4-0.8 0.8 0 0.4 0.3 0.8 0.8 0.8h2.3c0.5 0 0.8-0.4 0.8-0.8 0-0.4-0.3-0.8-0.8-0.8zm10.6-3c-0.4 0-0.7 0.3-0.7 0.8 0 0.4 0.3 0.8 0.7 0.8h2.4c0.4 0 0.8-0.4 0.8-0.8 0-0.5-0.4-0.8-0.8-0.8zm-5.3 0c-0.4 0-0.8 0.3-0.8 0.8 0 0.4 0.4 0.8 0.8 0.8h2.4c0.4 0 0.8-0.4 0.8-0.8 0-0.5-0.4-0.8-0.8-0.8zm-5.3 0c-0.5 0-0.8 0.3-0.8 0.8 0 0.4 0.3 0.8 0.8 0.8h2.3c0.5 0 0.8-0.4 0.8-0.8 0-0.5-0.3-0.8-0.8-0.8zm10.6-3c-0.4 0-0.8 0.3-0.8 0.8 0 0.4 0.4 0.8 0.8 0.8h2.4c0.4 0 0.8-0.4 0.8-0.8 0-0.5-0.4-0.8-0.8-0.8zm-5.3 0c-0.4 0-0.8 0.3-0.8 0.8 0 0.4 0.4 0.8 0.8 0.8h2.4c0.4 0 0.8-0.4 0.8-0.8 0-0.5-0.4-0.8-0.8-0.8zm-5.3 0c-0.5 0-0.8 0.3-0.8 0.8 0 0.4 0.3 0.8 0.8 0.8h2.3c0.5 0 0.8-0.4 0.8-0.8 0-0.5-0.3-0.8-0.8-0.8zm10.6-3c-0.4 0-0.8 0.3-0.8 0.8 0 0.4 0.4 0.8 0.8 0.8h2.4c0.4 0 0.8-0.4 0.8-0.8 0-0.5-0.4-0.8-0.8-0.8zm-5.3 0c-0.4 0-0.8 0.3-0.8 0.8 0 0.4 0.4 0.8 0.8 0.8h2.4c0.4 0 0.7-0.4 0.7-0.8 0-0.5-0.3-0.8-0.7-0.8zm-5.3 0c-0.5 0-0.8 0.3-0.8 0.8 0 0.4 0.3 0.8 0.8 0.8h2.3c0.5 0 0.8-0.4 0.8-0.8 0-0.5-0.3-0.8-0.8-0.8zm-0.8-16.3v14.5h14.6v-14.5z"/></g></svg>