<svg version="1.2" xmlns="http://www.w3.org/2000/svg" viewBox="0 0 40 40" width="40" height="40"><defs><clipPath clipPathUnits="userSpaceOnUse" id="cp1"><path d="m-24-686h375v812h-375z"/></clipPath><clipPath clipPathUnits="userSpaceOnUse" id="cp2"><path d="m0 20c0-11.05 8.95-20 20-20 11.05 0 20 8.95 20 20 0 11.05-8.95 20-20 20-11.05 0-20-8.95-20-20z"/></clipPath></defs><style>.a{fill:#7e51ff}.b{fill:#fff}</style><g clip-path="url(#cp1)"><path class="a" d="m0 20c0-11 9-20 20-20 11 0 20 9 20 20 0 11-9 20-20 20-11 0-20-9-20-20z"/><g clip-path="url(#cp2)"><path fill-rule="evenodd" class="b" d="m25.3 29.8l-1.4-1.3-1.3 1.3q-0.1 0.2-0.4 0.2-0.2 0-0.4-0.2l-1.3-1.3-1.3 1.3q-0.2 0.2-0.4 0.2-0.3 0-0.5-0.2l-1.3-1.3-1.3 1.3q-0.1 0.2-0.4 0.2-0.2 0-0.4-0.2l-1.7-1.7q-0.2-0.2-0.2-0.4v-17.1c0-0.3 0.3-0.6 0.6-0.6h13.8c0.3 0 0.6 0.3 0.6 0.6v17.1q0 0.2-0.2 0.4l-1.7 1.7q-0.2 0.2-0.4 0.2-0.3 0-0.4-0.2zm-0.9-2.5l1.3 1.3 1.1-1.2v-16.2h-12.6v16.2l1.1 1.2 1.3-1.3q0.2-0.2 0.4-0.2 0.3 0 0.5 0.2l1.3 1.3 1.3-1.3q0.1-0.2 0.4-0.2 0.2 0 0.4 0.2l1.3 1.3 1.3-1.3q0.2-0.2 0.4-0.2 0.3 0 0.5 0.2zm-7-2.3c-0.4 0-0.6-0.3-0.6-0.6 0-0.3 0.2-0.6 0.6-0.6h6.2c0.4 0 0.6 0.3 0.6 0.6 0 0.3-0.2 0.6-0.6 0.6zm2.1-3.1h-1.4v-2.7h-0.8v-0.8h0.8v-1.1h-0.8v-0.9h0.8v-2.6h1.7l1.1 2.6h0.8v-2.6h1.3v2.6h0.9v0.9h-0.9v1.1h0.9v0.8h-0.9v2.7h-1.5l-1.2-2.7h-0.8v2.7q0 0 0 0zm2.1-3.5h0.1v-1.1h-0.6zm-2 0h0.6l-0.4-1.1h-0.2z"/></g></g></svg>