<svg version="1.2" xmlns="http://www.w3.org/2000/svg" viewBox="0 0 16 15" width="16" height="15"><defs><clipPath clipPathUnits="userSpaceOnUse" id="cp1"><path d="m-28-573h375v812h-375z"/></clipPath></defs><style>.a{fill:#818791}</style><g clip-path="url(#cp1)"><path fill-rule="evenodd" class="a" d="m15.3 14h-12.1c-1.8 0-3.2-1.4-3.2-3.2v-8.3c0-1.4 1.1-2.5 2.5-2.5h11.5v2.5h-1.2v-1.2h-10.3c-0.7 0-1.2 0.5-1.2 1.2 0 0.8 0.5 1.3 1.2 1.3h12.8v10.2q0 0 0 0zm-14-3.2c0 1.1 0.8 2 1.9 2h10.8v-7.7h-11.5q-0.6 0-1.2-0.4zm7.6-1.9c0-0.7 0.6-1.3 1.3-1.3 0.7 0 1.3 0.6 1.3 1.3 0 0.7-0.6 1.3-1.3 1.3-0.7 0-1.3-0.6-1.3-1.3z"/></g></svg>