<svg version="1.2" xmlns="http://www.w3.org/2000/svg" viewBox="0 0 75 49" width="75" height="49"><defs><clipPath clipPathUnits="userSpaceOnUse" id="cp1"><path d="m-150-729h375v812h-375z"/></clipPath></defs><style>tspan{white-space:pre}.a{fill:none}.b{fill:#9ca0a5}</style><g clip-path="url(#cp1)"><path class="a" d="m0 0h75v49h-75z"/><path fill-rule="evenodd" class="b" d="m32.3 27.7c-1.4-0.5-2.5-1.6-3-3q-0.3-0.8-0.3-1.7v-6.5c0-2.1 0.8-4.1 2.2-5.7 1.4-1.6 3.3-2.6 5.4-2.8q0.4 0 0.7 0c4.6 0 8.4 3.7 8.4 8.3 0 2-0.7 3.9-2 5.4-1.3 1.5-3 2.5-4.9 2.8v0.1h-0.1c-0.4 1.4-1.6 2.6-3 3.1q-0.8 0.3-1.7 0.3-0.9 0-1.7-0.3zm0-11.4v6.8c0 0.9 0.7 1.6 1.6 1.6 1 0 1.8-0.8 1.8-1.8 0-0.8 0.7-1.6 1.6-1.6 0 0 0.9 0 1.4-0.1 2.2-0.7 3.7-2.7 3.6-5 0-1.3-0.5-2.5-1.4-3.4-0.9-0.9-2.1-1.4-3.4-1.5q-0.1 0-0.2 0c-2.7 0-5 2.3-5 5zm3.4 1.7v-1.7c0-0.9 0.7-1.6 1.6-1.6 1 0 1.7 0.7 1.7 1.6 0 1-0.7 1.7-1.7 1.7z"/></g></svg>