<svg version="1.2" xmlns="http://www.w3.org/2000/svg" viewBox="0 0 95 95" width="95" height="95"><defs><clipPath clipPathUnits="userSpaceOnUse" id="cp1"><path d="m-9-75h375v812h-375z"/></clipPath><filter x="-50%" y="-50%" width="200%" height="200%" id="f1" ><feDropShadow dx="-1.2246467991473532e-16" dy="2" stdDeviation="5.833333333333334" flood-color="#000000" flood-opacity=".2"/></filter></defs><style>.a{filter:url(#f1);fill:#fff}.b{fill:#bb53f2}</style><g clip-path="url(#cp1)"><path class="a" d="m15 45c0-17.7 14.3-32 32-32h1c17.7 0 32 14.3 32 32v1c0 17.7-14.3 32-32 32h-1c-17.7 0-32-14.3-32-32z"/><path fill-rule="evenodd" class="b" d="m54.7 62h-14.5c-1.2 0-2.2-1-2.2-2.2v-27.6c0-1.2 1-2.2 2.2-2.2h14.5c1.2 0 2.2 1 2.2 2.2v27.6c0 1.2-1 2.2-2.2 2.2zm-3.1-4.1c-0.5 0-0.8 0.4-0.8 0.8 0 0.4 0.3 0.8 0.8 0.8h2.3c0.5 0 0.8-0.4 0.8-0.8 0-0.4-0.3-0.8-0.8-0.8zm-5.3 0c-0.4 0-0.8 0.4-0.8 0.8 0 0.4 0.4 0.8 0.8 0.8h2.4c0.4 0 0.8-0.4 0.8-0.8 0-0.4-0.4-0.8-0.8-0.8zm-5.3 0c-0.5 0-0.8 0.4-0.8 0.8 0 0.4 0.3 0.8 0.8 0.8h2.3c0.5 0 0.8-0.4 0.8-0.8 0-0.4-0.3-0.8-0.8-0.8zm10.6-3c-0.4 0-0.7 0.3-0.7 0.8 0 0.4 0.3 0.8 0.7 0.8h2.4c0.4 0 0.8-0.4 0.8-0.8 0-0.5-0.4-0.8-0.8-0.8zm-5.3 0c-0.4 0-0.8 0.3-0.8 0.8 0 0.4 0.4 0.8 0.8 0.8h2.4c0.4 0 0.8-0.4 0.8-0.8 0-0.5-0.4-0.8-0.8-0.8zm-5.3 0c-0.5 0-0.8 0.3-0.8 0.8 0 0.4 0.3 0.8 0.8 0.8h2.3c0.5 0 0.8-0.4 0.8-0.8 0-0.5-0.3-0.8-0.8-0.8zm10.6-3c-0.4 0-0.8 0.3-0.8 0.8 0 0.4 0.4 0.8 0.8 0.8h2.4c0.4 0 0.8-0.4 0.8-0.8 0-0.5-0.4-0.8-0.8-0.8zm-5.3 0c-0.4 0-0.8 0.3-0.8 0.8 0 0.4 0.4 0.8 0.8 0.8h2.4c0.4 0 0.8-0.4 0.8-0.8 0-0.5-0.4-0.8-0.8-0.8zm-5.3 0c-0.5 0-0.8 0.3-0.8 0.8 0 0.4 0.3 0.8 0.8 0.8h2.3c0.5 0 0.8-0.4 0.8-0.8 0-0.5-0.3-0.8-0.8-0.8zm10.6-3c-0.4 0-0.8 0.3-0.8 0.8 0 0.4 0.4 0.8 0.8 0.8h2.4c0.4 0 0.8-0.4 0.8-0.8 0-0.5-0.4-0.8-0.8-0.8zm-5.3 0c-0.4 0-0.8 0.3-0.8 0.8 0 0.4 0.4 0.8 0.8 0.8h2.4c0.4 0 0.7-0.4 0.7-0.8 0-0.5-0.3-0.8-0.7-0.8zm-5.3 0c-0.5 0-0.8 0.3-0.8 0.8 0 0.4 0.3 0.8 0.8 0.8h2.3c0.5 0 0.8-0.4 0.8-0.8 0-0.5-0.3-0.8-0.8-0.8zm-0.8-16.3v14.5h14.6v-14.5z"/></g></svg>