<svg version="1.2" xmlns="http://www.w3.org/2000/svg" viewBox="0 0 16 20" width="16" height="20"><defs><clipPath clipPathUnits="userSpaceOnUse" id="cp1"><path d="m-27-375h375v812h-375z"/></clipPath></defs><style>.a{fill:#9ca0a5}</style><g clip-path="url(#cp1)"><path fill-rule="evenodd" class="a" d="m13.3 19.8l-1.4-1.3-1.3 1.3q-0.1 0.2-0.4 0.2-0.2 0-0.4-0.2l-1.3-1.3-1.3 1.3q-0.2 0.2-0.4 0.2-0.3 0-0.5-0.2l-1.3-1.3-1.3 1.3q-0.1 0.2-0.4 0.2-0.2 0-0.4-0.2l-1.7-1.7q-0.2-0.2-0.2-0.4v-17.1c0-0.3 0.3-0.6 0.6-0.6h13.8c0.3 0 0.6 0.3 0.6 0.6v17.1q0 0.2-0.2 0.4l-1.7 1.7q-0.2 0.2-0.4 0.2-0.3 0-0.4-0.2zm-0.9-2.5l1.3 1.3 1.1-1.2v-16.2h-12.6v16.2l1.1 1.2 1.3-1.3q0.2-0.2 0.4-0.2 0.3 0 0.5 0.2l1.3 1.3 1.3-1.3q0.1-0.2 0.4-0.2 0.2 0 0.4 0.2l1.3 1.3 1.3-1.3q0.2-0.2 0.4-0.2 0.3 0 0.5 0.2zm-7-2.3c-0.4 0-0.6-0.3-0.6-0.6 0-0.3 0.2-0.6 0.6-0.6h6.2c0.4 0 0.6 0.3 0.6 0.6 0 0.3-0.2 0.6-0.6 0.6zm2.1-3.1h-1.4v-2.7h-0.8v-0.8h0.8v-1.1h-0.8v-0.9h0.8v-2.6h1.7l1.1 2.6h0.8v-2.6h1.3v2.6h0.9v0.9h-0.9v1.1h0.9v0.8h-0.9v2.7h-1.5l-1.2-2.7h-0.8v2.7q0 0 0 0zm2.1-3.5h0.1v-1.1h-0.6zm-2 0h0.6l-0.4-1.1h-0.2z"/></g></svg>