<svg version="1.2" xmlns="http://www.w3.org/2000/svg" viewBox="0 0 18 19" width="18" height="19"><defs><clipPath clipPathUnits="userSpaceOnUse" id="cp1"><path d="m-307-346h375v812h-375z"/></clipPath></defs><style>.a{fill:#7e51ff}</style><g clip-path="url(#cp1)"><path fill-rule="evenodd" class="a" d="m9.8 19c-0.3 0-0.5-0.2-0.5-0.4v-0.7q-0.4 0.1-0.9 0.1-0.6 0-1.2-0.1v0.7c0 0.2-0.1 0.4-0.4 0.4h-2.6c-0.2 0-0.4-0.2-0.5-0.4v-0.2c0-0.6-0.1-1.6-0.9-2.4q-0.8-0.7-1.3-1.9-0.4-0.7-0.5-1.4 0 0 0 0-0.2-0.7-0.2-1.4 0-1.3 0.5-2.5c1.1 0.9 2.4 1.3 3.7 1.3 1.4 0 2.7-0.5 3.8-1.3 1.1-0.9 1.8-2 2.1-3.3 0.1-0.4 0.3-0.8 0.6-1q0.8-0.7 2-0.8 0 0 0 0 0.3 0 0.4 0.2 0.2 0.3 0 0.5-0.6 1-0.3 1.9 0 0.1 0 0.1c1 0.9 1.8 1.9 2.1 3.1h0.6c0.5 0 0.8 0.4 0.8 0.8v2c0 0.4-0.3 0.8-0.8 0.8h-0.5c-0.4 1.1-1 2.1-1.9 2.9q-0.1 0-0.1 0 0 0 0 0 0 0.1-0.1 0.1c-0.8 0.8-0.9 1.6-0.9 1.8v0.7c0 0.2-0.1 0.4-0.4 0.4zm2.6-10c0 0.3 0.3 0.6 0.7 0.6 0.3 0 0.6-0.3 0.6-0.6 0-0.4-0.3-0.7-0.6-0.7-0.4 0-0.7 0.3-0.7 0.7zm-8.2-2.1h-1v-2h-0.6v-0.6h0.6v-0.8h-0.6v-0.7h0.6v-1.9h1.3l0.8 1.9h0.6v-1.9h1v1.9h0.6v0.7h-0.6v0.8h0.6v0.6h-0.6v2h-1.2l-0.8-2h-0.7v2q0 0 0 0zm1.6-2.6h0.1v-0.8h-0.4zm-1.6 0h0.5l-0.3-0.8h-0.2z"/></g></svg>