<svg version="1.2" xmlns="http://www.w3.org/2000/svg" viewBox="0 0 75 49" width="75" height="49"><defs><clipPath clipPathUnits="userSpaceOnUse" id="cp1"><path d="m-225-729h375v812h-375z"/></clipPath></defs><style>tspan{white-space:pre}.a{fill:none}.b{fill:#9ca0a5}</style><g clip-path="url(#cp1)"><path class="a" d="m0 0h75v49h-75z"/><path fill-rule="evenodd" class="b" d="m28 19.1c0-4.9 4-9 8.9-9 0.3 0 0.6 0.3 0.6 0.6v7.8h7.8c0.3 0 0.6 0.3 0.6 0.6 0 4.9-4.1 8.9-9 8.9-4.9 0-8.9-4-8.9-8.9zm3.2-5.3c-1.3 1.4-2.1 3.3-2.1 5.3 0 4.3 3.5 7.8 7.8 7.8 2 0 3.9-0.8 5.3-2.1 1.5-1.4 2.4-3.2 2.5-5.2h-7.8c-0.3 0-0.5-0.2-0.5-0.5v-7.8c-2 0.1-3.8 1-5.2 2.5zm7.9 3.7c-0.3 0-0.6-0.3-0.6-0.6v-8.3c0-0.3 0.3-0.6 0.6-0.6 2.5 0 5 1.1 6.7 3 1.4 1.6 2.2 3.7 2.2 5.9 0 0.3-0.3 0.6-0.6 0.6zm0.6-1.1h7.2c-0.1-1.7-0.8-3.4-1.9-4.6-1.4-1.6-3.3-2.5-5.3-2.6z"/></g></svg>