<svg version="1.2" xmlns="http://www.w3.org/2000/svg" viewBox="0 0 13 18" width="13" height="18"><defs><clipPath clipPathUnits="userSpaceOnUse" id="cp1"><path d="m-311-460h375v812h-375z"/></clipPath></defs><style>.a{fill:#bb53f2}</style><g clip-path="url(#cp1)"><path fill-rule="evenodd" class="a" d="m0.2 13.2c0-2.3 1.9-4.3 4.3-4.3 2.4 0 4.3 2 4.3 4.3 0 2.4-1.9 4.3-4.3 4.3-2.4 0-4.3-1.9-4.3-4.3zm4.7 1.4c0 0.6 0.4 1.1 1 1.1 0.6 0 1.1-0.5 1.1-1.1 0-0.5-0.5-1-1.1-1-0.6 0-1 0.5-1 1zm-2.8 0.5l0.5 0.5 4.3-4.3-0.5-0.5zm-0.1-3.3c0 0.6 0.5 1.1 1.1 1.1 0.5 0 1-0.5 1-1.1 0-0.6-0.5-1.1-1-1.1-0.6 0-1.1 0.5-1.1 1.1zm3.6 2.9c0-0.2 0.1-0.4 0.3-0.4 0.2 0 0.4 0.2 0.4 0.4 0 0.2-0.2 0.3-0.4 0.3-0.2 0-0.3-0.1-0.3-0.3zm-2.9-2.9c0-0.2 0.2-0.4 0.4-0.4 0.2 0 0.3 0.2 0.3 0.4 0 0.2-0.1 0.4-0.3 0.4-0.2 0-0.4-0.2-0.4-0.4zm5-6.6q-0.2-0.2-0.4-0.2 0-0.2 0-0.3 0-0.3-0.1-0.6 0.3-0.1 0.7-0.1 0.3 0.1 0.6-0.1 0.3-0.3 0.3-0.6c0-0.4 0.2-0.8 0.5-1.1 0.3-0.2 0.7-0.3 1.1-0.3q0.4 0 0.6-0.2l0.5 0.6c-0.3 0.2-0.7 0.3-1.1 0.3q-0.3 0-0.6 0.2-0.3 0.2-0.3 0.6c-0.1 0.4-0.2 0.7-0.6 1q-0.2 0.2-0.5 0.3 0.1 0 0.3 0 0.3-0.1 0.5-0.4c0.5-0.6 1.4-0.8 2.1-0.3q0.3 0.2 0.7 0.1l0.1 0.7c-0.4 0.1-0.8 0-1.1-0.2q-0.3-0.2-0.7-0.2-0.3 0.1-0.5 0.4c-0.2 0.3-0.6 0.5-1 0.6q-0.1 0-0.3 0-0.4 0-0.8-0.2zm-5-0.2c-0.2 0-0.4-0.1-0.4-0.3 0-0.2 0.2-0.4 0.4-0.4h3.6c0.2 0 0.3 0.2 0.3 0.4 0 0.2-0.1 0.3-0.3 0.3zm0.2-1.4l-1.5-3q0.3-0.1 0.6-0.3 0.3-0.3 0.7-0.3 0.4 0 0.6 0.3c0.7 0.6 1.6 0.6 2.3 0q0.3-0.3 0.6-0.3 0.4 0 0.7 0.3 0.3 0.2 0.6 0.3l-1.5 3z"/></g></svg>