<svg version="1.2" xmlns="http://www.w3.org/2000/svg" viewBox="0 0 26 20" width="26" height="20"><defs><clipPath clipPathUnits="userSpaceOnUse" id="cp1"><path d="m-52-252h375v812h-375z"/></clipPath></defs><style>.a{fill:#fa4a84}</style><g clip-path="url(#cp1)"><path class="a" d="m25.2 7.9l-6.4 6.4q-0.2 0.2-0.6 0.2c-0.5 0-0.9-0.4-0.9-0.9v-2.7h-10c-0.5 0-0.9-0.4-0.9-0.9v-1.4l-4.2 4.1 4.2 4.2v-1.4c0-0.5 0.4-1 0.9-1h7.2c0.5 0 1 0.5 1 1 0 0.5-0.5 0.9-1 0.9h-6.3v2.7c0 0.4-0.2 0.7-0.6 0.8q-0.1 0.1-0.3 0.1-0.4 0-0.7-0.3l-6.3-6.3c-0.4-0.4-0.4-1 0-1.3l6.3-6.4q0.3-0.2 0.7-0.2c0.5 0 0.9 0.4 0.9 0.9v2.7h10c0.5 0 0.9 0.4 0.9 0.9v1.4l4.2-4.1-4.2-4.2v1.4c0 0.5-0.4 1-0.9 1h-7.3c-0.5 0-0.9-0.5-0.9-1 0-0.5 0.4-0.9 0.9-0.9h6.4v-2.7q0-0.4 0.2-0.6c0.4-0.4 1-0.4 1.3 0l6.4 6.3c0.3 0.4 0.3 1 0 1.3z"/></g></svg>