<svg version="1.2" xmlns="http://www.w3.org/2000/svg" viewBox="0 0 19 19" width="19" height="19"><defs><clipPath clipPathUnits="userSpaceOnUse" id="cp1"><path d="m-178-253h375v812h-375z"/></clipPath></defs><style>.a{fill:#fa4a84;stroke:#fa4a84;stroke-width:.5}</style><g clip-path="url(#cp1)"><path fill-rule="evenodd" class="a" d="m2.4 18h-1.4c0.6-3 2.7-5.5 5.5-6.5-1.7-1.1-2.7-2.9-2.7-4.8 0-3.2 2.6-5.7 5.7-5.7 3.1 0 5.6 2.5 5.6 5.7 0 1.9-1 3.7-2.6 4.8 2.8 1 4.9 3.5 5.5 6.5h-1.4c-0.4-1.6-1.3-3-2.5-4.1-1.3-1-2.9-1.6-4.6-1.6-1.7 0-3.3 0.6-4.6 1.6-1.3 1.1-2.1 2.5-2.5 4.1zm7.1-15.6c-2.4 0-4.3 1.9-4.3 4.3 0 2.3 1.9 4.2 4.3 4.2 2.3 0 4.2-1.9 4.2-4.2 0-2.4-1.9-4.3-4.2-4.3z"/></g></svg>