<svg version="1.2" xmlns="http://www.w3.org/2000/svg" viewBox="0 0 40 40" width="40" height="40"><defs><clipPath clipPathUnits="userSpaceOnUse" id="cp1"><path d="m-24-616h375v812h-375z"/></clipPath><clipPath clipPathUnits="userSpaceOnUse" id="cp2"><path d="m0 20c0-11.05 8.95-20 20-20 11.05 0 20 8.95 20 20 0 11.05-8.95 20-20 20-11.05 0-20-8.95-20-20z"/></clipPath></defs><style>.a{fill:#bb53f2}.b{fill:#fff}</style><g clip-path="url(#cp1)"><path class="a" d="m0 20c0-11 9-20 20-20 11 0 20 9 20 20 0 11-9 20-20 20-11 0-20-9-20-20z"/><g clip-path="url(#cp2)"><path fill-rule="evenodd" class="b" d="m25.5 31h-10c-0.8 0-1.5-0.7-1.5-1.5v-19c0-0.8 0.7-1.5 1.5-1.5h10c0.8 0 1.5 0.7 1.5 1.5v19c0 0.8-0.7 1.5-1.5 1.5zm-2.2-2.8c-0.3 0-0.5 0.2-0.5 0.5 0 0.3 0.2 0.6 0.5 0.6h1.6c0.3 0 0.6-0.3 0.6-0.6 0-0.3-0.3-0.5-0.6-0.5zm-3.6 0c-0.3 0-0.5 0.2-0.5 0.5 0 0.3 0.2 0.6 0.5 0.6h1.6c0.3 0 0.6-0.3 0.6-0.6 0-0.3-0.3-0.5-0.6-0.5zm-3.6 0c-0.3 0-0.6 0.2-0.6 0.5 0 0.3 0.3 0.6 0.6 0.6h1.6c0.3 0 0.5-0.3 0.5-0.6 0-0.3-0.2-0.5-0.5-0.5zm7.3-2.1c-0.3 0-0.5 0.3-0.5 0.6 0 0.3 0.2 0.5 0.5 0.5h1.6c0.3 0 0.6-0.2 0.6-0.5 0-0.3-0.3-0.6-0.6-0.6zm-3.6 0c-0.3 0-0.6 0.3-0.6 0.6 0 0.3 0.3 0.5 0.6 0.5h1.6c0.3 0 0.5-0.2 0.5-0.5 0-0.3-0.2-0.6-0.5-0.6zm-3.6 0c-0.3 0-0.6 0.3-0.6 0.6 0 0.3 0.3 0.5 0.6 0.5h1.6c0.3 0 0.5-0.2 0.5-0.5 0-0.3-0.2-0.6-0.5-0.6zm7.3-2.1c-0.3 0-0.6 0.3-0.6 0.6 0 0.3 0.3 0.5 0.6 0.5h1.6c0.3 0 0.5-0.2 0.5-0.5 0-0.3-0.2-0.6-0.5-0.6zm-3.6 0c-0.3 0-0.6 0.3-0.6 0.6 0 0.3 0.3 0.5 0.6 0.5h1.6c0.3 0 0.5-0.2 0.5-0.5 0-0.3-0.2-0.6-0.5-0.6zm-3.7 0c-0.3 0-0.5 0.3-0.5 0.6 0 0.3 0.2 0.5 0.5 0.5h1.7c0.3 0 0.5-0.2 0.5-0.5 0-0.3-0.2-0.6-0.5-0.6zm7.2-2c-0.3 0-0.5 0.2-0.5 0.5 0 0.3 0.2 0.6 0.5 0.6h1.7c0.3 0 0.5-0.3 0.5-0.6 0-0.3-0.2-0.5-0.5-0.5zm-3.7 0c-0.3 0-0.5 0.2-0.5 0.5 0 0.3 0.2 0.6 0.5 0.6h1.7c0.3 0 0.5-0.3 0.5-0.6 0-0.3-0.2-0.5-0.5-0.5zm-3.7 0c-0.3 0-0.5 0.2-0.5 0.5 0 0.3 0.2 0.6 0.5 0.6h1.6c0.3 0 0.6-0.3 0.6-0.6 0-0.3-0.3-0.5-0.6-0.5zm-0.5-11.2v9.9h10v-9.9z"/></g></g></svg>