<svg version="1.2" xmlns="http://www.w3.org/2000/svg" viewBox="0 0 21 21" width="21" height="21"><defs><clipPath clipPathUnits="userSpaceOnUse" id="cp1"><path d="m-14-56h375v812h-375z"/></clipPath></defs><style>.a{fill:#fa4a84}</style><g clip-path="url(#cp1)"><path fill-rule="evenodd" class="a" d="m11 21c-5.5 0-10-4.5-10-10 0-5.5 4.5-10 10-10 5.5 0 10 4.5 10 10 0 5.5-4.5 10-10 10zm0-17.5c-4.1 0-7.5 3.4-7.5 7.5 0 4.1 3.4 7.5 7.5 7.5 4.1 0 7.5-3.4 7.5-7.5 0-4.1-3.4-7.5-7.5-7.5zm1.6 12.2h-3.2v-1.6h0.6v-2.7h-0.6v-1.6h2.6v4.3h0.6zm-1.8-7c-0.6 0-1.1-0.5-1.1-1.2 0-0.6 0.5-1.2 1.1-1.2 0.7 0 1.2 0.6 1.2 1.2 0 0.7-0.5 1.2-1.2 1.2z"/></g></svg>